<svg width="24" height="24" viewBox="0 0 24 24" fill="none" xmlns="http://www.w3.org/2000/svg">
<path d="M9.23057 3C9.56049 3 9.8541 3.21091 9.95974 3.52433L14.7684 17.8158L16.8097 11.7529L16.8578 11.6404C16.9892 11.3901 17.2502 11.2286 17.5389 11.2286H21.2308L21.3099 11.2326C21.6976 11.2723 22 11.6007 22 12C22 12.3993 21.6976 12.7277 21.3099 12.7674L21.2308 12.7714H18.0907L15.4976 20.4757C15.3919 20.7889 15.0992 20.9999 14.7694 21C14.4395 21 14.1459 20.7891 14.0403 20.4757L9.23057 6.18315L7.1903 12.2471C7.08465 12.5605 6.79104 12.7714 6.46114 12.7714H2.76923C2.3444 12.7714 2 12.426 2 12C2 11.574 2.3444 11.2286 2.76923 11.2286H5.90926L8.5024 3.52433L8.55048 3.41183C8.68187 3.16164 8.94204 3.00007 9.23057 3Z" fill="#171717"/>
</svg>
