<svg width="24" height="24" viewBox="0 0 24 24" fill="none" xmlns="http://www.w3.org/2000/svg">
<path d="M16.0689 8.78702C16.0689 7.70804 15.6395 6.67302 14.8765 5.91006C14.1136 5.14724 13.0785 4.71866 11.9996 4.71866C10.9207 4.71875 9.88557 5.14714 9.12264 5.91006C8.35972 6.67301 7.9313 7.70807 7.93123 8.78702C7.93123 11.7081 7.30446 13.6412 6.63534 14.8681C6.55788 15.0101 6.4801 15.1428 6.40291 15.2655H17.5972C17.52 15.1427 17.4423 15.0101 17.3648 14.8681C16.6957 13.6412 16.0689 11.7081 16.0689 8.78702ZM17.5689 8.78702C17.5689 11.4873 18.1458 13.1686 18.6812 14.1503C18.9499 14.6429 19.2128 14.9666 19.3961 15.1601C19.4879 15.2569 19.5598 15.3224 19.6041 15.3593C19.6262 15.3777 19.6421 15.3893 19.649 15.3944C19.6518 15.3965 19.6532 15.3975 19.6529 15.3974L19.6471 15.3935L19.6451 15.3915C19.9198 15.5749 20.0415 15.9162 19.9459 16.2323C19.8501 16.5486 19.5585 16.7654 19.2281 16.7655H4.77205C4.44155 16.7655 4.15006 16.5486 4.05428 16.2323C3.9586 15.9161 4.08121 15.5748 4.35604 15.3915L4.35213 15.3935C4.35128 15.394 4.35083 15.395 4.35018 15.3954C4.34871 15.3964 4.34763 15.3971 4.34725 15.3974C4.34652 15.3979 4.34784 15.3969 4.35116 15.3944C4.35806 15.3893 4.37315 15.3776 4.3951 15.3593C4.43937 15.3224 4.51226 15.257 4.60409 15.1601C4.7873 14.9666 5.04936 14.6427 5.31795 14.1503C5.8534 13.1686 6.43123 11.4874 6.43123 8.78702C6.4313 7.31025 7.01787 5.89377 8.06209 4.84952C9.10632 3.80529 10.5228 3.21875 11.9996 3.21866C13.4763 3.21866 14.8928 3.80539 15.9371 4.84952C16.9814 5.89378 17.5689 7.31022 17.5689 8.78702Z" fill="#171717"/>
<path d="M12.7406 18.8516C12.9484 18.4933 13.4077 18.3713 13.766 18.5791C14.1239 18.787 14.2459 19.2454 14.0384 19.6035C13.8314 19.9605 13.5337 20.2569 13.1761 20.4629C12.8185 20.6689 12.413 20.7773 12.0004 20.7774C11.5876 20.7774 11.1813 20.6689 10.8236 20.4629C10.4661 20.2569 10.1693 19.9604 9.96227 19.6035C9.75453 19.2453 9.87648 18.7869 10.2347 18.5791C10.593 18.3714 11.0513 18.4933 11.2591 18.8516C11.3344 18.9812 11.4428 19.0883 11.5726 19.1631C11.7026 19.238 11.8504 19.2774 12.0004 19.2774C12.1502 19.2773 12.2972 19.2379 12.4271 19.1631C12.557 19.0883 12.6653 18.9812 12.7406 18.8516Z" fill="#171717"/>
</svg>
