<svg width="24" height="24" viewBox="0 0 24 24" fill="none" xmlns="http://www.w3.org/2000/svg">
<path d="M15.75 2C16.1642 2 16.5 2.33579 16.5 2.75V4H17.9727C19.3684 4.00023 20.4998 5.13163 20.5 6.52734V18.9727C20.4998 20.3684 19.3684 21.4998 17.9727 21.5H5.52734C4.13163 21.4998 3.00023 20.3684 3 18.9727V6.52734C3.00023 5.13163 4.13163 4.00023 5.52734 4H7V2.75C7 2.33579 7.33579 2 7.75 2C8.16421 2 8.5 2.33579 8.5 2.75V4H15V2.75C15 2.33579 15.3358 2 15.75 2ZM4.5 10.5V18.9727C4.50023 19.5399 4.96006 19.9998 5.52734 20H17.9727C18.5399 19.9998 18.9998 19.5399 19 18.9727V10.5H4.5ZM5.52734 5.5C4.96006 5.50023 4.50023 5.96006 4.5 6.52734V9H19V6.52734C18.9998 5.96006 18.5399 5.50023 17.9727 5.5H16.5V6.75C16.5 7.16421 16.1642 7.5 15.75 7.5C15.3358 7.5 15 7.16421 15 6.75V5.5H8.5V6.75C8.5 7.16421 8.16421 7.5 7.75 7.5C7.33579 7.5 7 7.16421 7 6.75V5.5H5.52734Z" fill="#171717"/>
</svg>
