<svg width="24" height="24" viewBox="0 0 24 24" fill="none" xmlns="http://www.w3.org/2000/svg">
<path d="M11.4953 3.05853C11.8095 2.80213 12.2726 2.82028 12.5656 3.11322L19.5002 10.0478L19.5548 10.1083C19.8111 10.4225 19.793 10.8857 19.5002 11.1786C19.1877 11.4911 18.6807 11.4911 18.3683 11.1786L11.9992 4.80951L5.63101 11.1786C5.31861 11.491 4.81256 11.491 4.50015 11.1786C4.18775 10.8662 4.18779 10.3602 4.50015 10.0478L11.4347 3.11322L11.4953 3.05853Z" fill="#171717"/>
<path d="M11.4953 12.7668C11.8095 12.5104 12.2726 12.5285 12.5656 12.8215L19.5002 19.756L19.5548 19.8166C19.8111 20.1308 19.793 20.594 19.5002 20.8869C19.1877 21.1993 18.6807 21.1993 18.3683 20.8869L11.9992 14.5178L5.63101 20.8869C5.31861 21.1992 4.81256 21.1992 4.50015 20.8869C4.18775 20.5745 4.18779 20.0685 4.50015 19.756L11.4347 12.8215L11.4953 12.7668Z" fill="#171717"/>
</svg>
