<svg width="24" height="24" viewBox="0 0 24 24" fill="none" xmlns="http://www.w3.org/2000/svg">
<path d="M19 6.03223C19 5.8312 18.9607 5.63204 18.8838 5.44629C18.8068 5.26038 18.6931 5.09151 18.5508 4.94922C18.4085 4.80693 18.2397 4.69322 18.0538 4.61621C17.868 4.53934 17.6688 4.50001 17.4678 4.5C17.2666 4.5 17.0668 4.5392 16.8809 4.61621C16.6951 4.69322 16.5261 4.80698 16.3838 4.94922L5.6309 15.7002L4.8184 18.6807L7.79887 17.8682L18.5508 7.11621C18.6931 6.97398 18.8068 6.80497 18.8838 6.61914C18.9608 6.43323 19 6.23346 19 6.03223ZM20.5 6.03223C20.5 6.43028 20.4218 6.82461 20.2696 7.19238C20.1172 7.56024 19.8939 7.8952 19.6123 8.17676L8.71879 19.0703C8.62655 19.1626 8.51163 19.2293 8.38578 19.2637L3.94731 20.4736C3.68767 20.5444 3.41006 20.4706 3.21977 20.2803C3.02947 20.09 2.95563 19.8124 3.02641 19.5527L4.23637 15.1143C4.27072 14.9884 4.33749 14.8735 4.42973 14.7812L15.3233 3.8877C15.6048 3.60616 15.9398 3.38284 16.3077 3.23047C16.6754 3.0782 17.0698 3 17.4678 3C17.8659 3.00001 18.2602 3.07817 18.628 3.23047C18.9959 3.38286 19.3308 3.60612 19.6123 3.8877C19.8939 4.16927 20.1172 4.50417 20.2696 4.87207C20.4219 5.23986 20.5 5.63415 20.5 6.03223Z" fill="#171717"/>
</svg>
