<svg width="24" height="24" viewBox="0 0 24 24" fill="none" xmlns="http://www.w3.org/2000/svg">
<g clip-path="url(#clip0_3572_954)">
<path d="M12 22C17.5228 22 22 17.5228 22 12C22 6.47715 17.5228 2 12 2C6.47715 2 2 6.47715 2 12C2 17.5228 6.47715 22 12 22Z" fill="#171717"/>
<path d="M15.8298 9.07207C16.0913 8.81074 16.5151 8.81065 16.7765 9.07207C17.0378 9.3335 17.0378 9.75739 16.7765 10.0188L10.8598 15.9356C10.5984 16.1969 10.1745 16.1969 9.91304 15.9356L7.2236 13.2461L7.1774 13.1956C6.96284 12.9326 6.97849 12.5445 7.2236 12.2994C7.46876 12.0542 7.85682 12.0386 8.11979 12.2532L8.17035 12.2994L10.3864 14.5154L15.8298 9.07207Z" fill="white"/>
</g>
<defs>
<clipPath id="clip0_3572_954">
<rect width="24" height="24" fill="white"/>
</clipPath>
</defs>
</svg>
