<svg width="24" height="24" viewBox="0 0 24 24" fill="none" xmlns="http://www.w3.org/2000/svg">
<path d="M13.9297 4C14.2589 3.99995 14.5837 4.08107 14.874 4.23633C15.164 4.39151 15.4111 4.61608 15.5938 4.88965L16.4062 6.11035C16.5889 6.38392 16.836 6.60849 17.126 6.76367C17.4163 6.91893 17.7411 7.00005 18.0703 7H19C19.5304 7 20.039 7.21086 20.4141 7.58594C20.7891 7.96101 21 8.46957 21 9V18C21 18.5304 20.7891 19.039 20.4141 19.4141C20.039 19.7891 19.5304 20 19 20H5C4.46957 20 3.96101 19.7891 3.58594 19.4141C3.21086 19.039 3 18.5304 3 18V9C3 8.46957 3.21086 7.96101 3.58594 7.58594C3.96101 7.21086 4.46957 7 5 7H5.92969C6.25887 7.00005 6.58375 6.91893 6.87402 6.76367C7.16403 6.60849 7.41114 6.38392 7.59375 6.11035L8.40625 4.88965C8.58886 4.61608 8.83597 4.39151 9.12598 4.23633C9.41625 4.08107 9.74113 3.99995 10.0703 4H13.9297ZM12 10C11.2044 10 10.4415 10.3163 9.87891 10.8789C9.3163 11.4415 9 12.2044 9 13C9 13.7956 9.3163 14.5585 9.87891 15.1211C10.4415 15.6837 11.2044 16 12 16C12.7956 16 13.5585 15.6837 14.1211 15.1211C14.6837 14.5585 15 13.7956 15 13C15 12.2044 14.6837 11.4415 14.1211 10.8789C13.5585 10.3163 12.7956 10 12 10Z" fill="#171717"/>
</svg>
