<svg width="24" height="24" viewBox="0 0 24 24" fill="none" xmlns="http://www.w3.org/2000/svg">
<path d="M10.75 3C15.0302 3 18.5 6.46979 18.5 10.75C18.5 12.62 17.8372 14.335 16.7344 15.6738L20.2803 19.2197L20.332 19.2764C20.5723 19.5709 20.5549 20.0057 20.2803 20.2803C20.0057 20.5549 19.5709 20.5723 19.2764 20.332L19.2197 20.2803L15.6738 16.7344C14.335 17.8372 12.62 18.5 10.75 18.5C6.46979 18.5 3 15.0302 3 10.75C3 6.46979 6.46979 3 10.75 3ZM10.75 4.5C7.29822 4.5 4.5 7.29822 4.5 10.75C4.5 14.2018 7.29822 17 10.75 17C14.2018 17 17 14.2018 17 10.75C17 7.29822 14.2018 4.5 10.75 4.5Z" fill="#171717"/>
</svg>
