<svg width="24" height="24" viewBox="0 0 24 24" fill="none" xmlns="http://www.w3.org/2000/svg">
<path d="M14.25 12C14.25 10.7574 13.2426 9.75 12 9.75C10.7574 9.75 9.75 10.7574 9.75 12C9.75 13.2426 10.7574 14.25 12 14.25C13.2426 14.25 14.25 13.2426 14.25 12ZM15.75 12C15.75 14.0711 14.0711 15.75 12 15.75C9.92893 15.75 8.25 14.0711 8.25 12C8.25 9.92893 9.92893 8.25 12 8.25C14.0711 8.25 15.75 9.92893 15.75 12Z" fill="#171717"/>
<path d="M12.8867 4.63672C12.8867 4.40172 12.7931 4.17597 12.627 4.00977C12.4607 3.84354 12.2351 3.75 12 3.75C11.7649 3.75 11.5393 3.84354 11.373 4.00977C11.2069 4.17597 11.1133 4.40172 11.1133 4.63672V4.77832C11.1116 5.18787 10.9908 5.58823 10.7646 5.92969C10.5385 6.27114 10.2173 6.53886 9.84082 6.7002C9.77623 6.72787 9.7081 6.7452 9.63867 6.75391C9.29391 6.87657 8.92237 6.90736 8.56055 6.8418C8.14783 6.76696 7.7667 6.57058 7.4668 6.27734L7.41113 6.22168C7.32884 6.13932 7.2306 6.07388 7.12305 6.0293C7.0156 5.98483 6.90047 5.96193 6.78418 5.96191C6.6677 5.96191 6.55194 5.98469 6.44434 6.0293C6.33691 6.07386 6.23945 6.13942 6.15723 6.22168L6.15625 6.22266C6.07399 6.30487 6.00844 6.40234 5.96387 6.50977C5.91926 6.61737 5.89648 6.73313 5.89648 6.84961C5.89649 6.96607 5.91927 7.08187 5.96387 7.18945C6.00845 7.29686 6.07399 7.39436 6.15625 7.47656L6.21191 7.53223C6.50515 7.83213 6.70153 8.21326 6.77637 8.62598C6.84834 9.02315 6.80275 9.43145 6.64844 9.80371C6.50304 10.199 6.24294 10.542 5.90039 10.7871C5.55765 11.0322 5.1488 11.1689 4.72754 11.1787H4.63672C4.40173 11.1787 4.17597 11.2724 4.00977 11.4385C3.84355 11.6047 3.75001 11.8304 3.75 12.0654C3.75 12.3005 3.84354 12.5262 4.00977 12.6924C4.17598 12.8585 4.40172 12.9521 4.63672 12.9521H4.77832C5.18787 12.9538 5.58823 13.0746 5.92969 13.3008C6.26873 13.5253 6.5346 13.8438 6.69629 14.2168C6.86568 14.6006 6.9166 15.0267 6.8418 15.4395C6.76696 15.8522 6.57058 16.2333 6.27734 16.5332L6.22168 16.5889C6.13932 16.6712 6.07388 16.7694 6.0293 16.877C5.98483 16.9844 5.96193 17.0995 5.96191 17.2158C5.96191 17.3323 5.98469 17.4481 6.0293 17.5557C6.07386 17.6631 6.13942 17.7606 6.22168 17.8428L6.22266 17.8438C6.30487 17.926 6.40234 17.9916 6.50977 18.0361C6.61737 18.0807 6.73313 18.1035 6.84961 18.1035C6.96607 18.1035 7.08187 18.0807 7.18945 18.0361C7.29686 17.9916 7.39436 17.926 7.47656 17.8438L7.53223 17.7881C7.83213 17.4948 8.21326 17.2985 8.62598 17.2236C9.02303 17.1517 9.43154 17.1964 9.80371 17.3506C9.81863 17.3561 9.83387 17.3624 9.84863 17.3682H9.84766C10.2245 17.5164 10.5511 17.7697 10.7871 18.0996C11.0322 18.4423 11.1689 18.8512 11.1787 19.2725V19.3633C11.1787 19.5983 11.2724 19.824 11.4385 19.9902C11.6047 20.1565 11.8304 20.25 12.0654 20.25C12.3005 20.25 12.5262 20.1565 12.6924 19.9902C12.8585 19.824 12.9521 19.5983 12.9521 19.3633V19.2217C12.9538 18.8121 13.0746 18.4118 13.3008 18.0703C13.5254 17.7312 13.8437 17.4644 14.2168 17.3027C14.6006 17.1333 15.0267 17.0834 15.4395 17.1582C15.8522 17.233 16.2333 17.4294 16.5332 17.7227L16.5889 17.7783L16.6533 17.8369C16.7206 17.8921 16.7963 17.9373 16.877 17.9707C16.9844 18.0152 17.0995 18.0381 17.2158 18.0381C17.3323 18.0381 17.4481 18.0153 17.5557 17.9707C17.6632 17.9261 17.7615 17.8597 17.8438 17.7773C17.926 17.6951 17.9916 17.5977 18.0361 17.4902C18.0807 17.3826 18.1035 17.2669 18.1035 17.1504C18.1035 17.0339 18.0807 16.9181 18.0361 16.8105C17.9916 16.7031 17.926 16.6056 17.8438 16.5234L17.7881 16.4678C17.4948 16.1679 17.2985 15.7867 17.2236 15.374C17.1488 14.9612 17.1988 14.5352 17.3682 14.1514C17.5298 13.7782 17.7966 13.46 18.1357 13.2354C18.4772 13.0092 18.8776 12.8884 19.2871 12.8867H19.3633C19.5983 12.8867 19.824 12.7931 19.9902 12.627C20.1565 12.4607 20.25 12.2351 20.25 12C20.25 11.7649 20.1565 11.5393 19.9902 11.373C19.824 11.2069 19.5983 11.1133 19.3633 11.1133H19.2217C18.8121 11.1116 18.4118 10.9908 18.0703 10.7646C17.7289 10.5385 17.4611 10.2173 17.2998 9.84082C17.2719 9.77559 17.2537 9.70685 17.2451 9.63672C17.1231 9.29253 17.0928 8.92166 17.1582 8.56055C17.233 8.14783 17.4294 7.7667 17.7227 7.4668L17.7783 7.41113L17.8369 7.34668C17.8921 7.27943 17.9373 7.20371 17.9707 7.12305C18.0152 7.0156 18.0381 6.90047 18.0381 6.78418C18.0381 6.6677 18.0153 6.55194 17.9707 6.44434C17.9261 6.33691 17.8606 6.23945 17.7783 6.15723L17.7773 6.15625C17.6951 6.07399 17.5977 6.00844 17.4902 5.96387C17.3826 5.91926 17.2669 5.89648 17.1504 5.89648C17.0339 5.89649 16.9181 5.91927 16.8105 5.96387C16.7031 6.00845 16.6056 6.07399 16.5234 6.15625L16.4678 6.21191C16.1679 6.50515 15.7867 6.70153 15.374 6.77637C14.9612 6.85118 14.5352 6.80123 14.1514 6.63184V6.63086C13.7784 6.46918 13.4599 6.2033 13.2354 5.86426C13.0092 5.5228 12.8884 5.12244 12.8867 4.71289V4.63672ZM14.3867 4.70703L14.3926 4.79395C14.4055 4.8801 14.4378 4.96292 14.4863 5.03613C14.5348 5.10926 14.5986 5.17032 14.6729 5.21582L14.75 5.25586L14.7578 5.25879V5.25977C14.8673 5.30795 14.9887 5.32208 15.1064 5.30078C15.2243 5.27942 15.3333 5.22332 15.4189 5.13965L15.4619 5.0957C15.6835 4.87397 15.9468 4.69818 16.2363 4.57812C16.526 4.45804 16.8368 4.39649 17.1504 4.39648C17.464 4.39648 17.7748 4.45803 18.0645 4.57812C18.3538 4.69808 18.6164 4.87421 18.8379 5.0957C19.0598 5.31732 19.2364 5.58043 19.3564 5.87012C19.4765 6.15982 19.5381 6.47057 19.5381 6.78418C19.5381 7.09776 19.4765 7.40857 19.3564 7.69824C19.2365 7.98756 19.0604 8.25025 18.8389 8.47168L18.7949 8.51562L18.7373 8.58398C18.6852 8.65621 18.6498 8.73978 18.6338 8.82812C18.6125 8.94583 18.6266 9.06729 18.6748 9.17676C18.697 9.22712 18.713 9.28028 18.7236 9.33398C18.7687 9.40514 18.8277 9.46675 18.8984 9.51367C18.996 9.57828 19.1105 9.61281 19.2275 9.61328H19.3633C19.9961 9.61328 20.6033 9.86508 21.0508 10.3125C21.4983 10.76 21.75 11.3671 21.75 12C21.75 12.6329 21.4983 13.24 21.0508 13.6875C20.6033 14.1349 19.9961 14.3867 19.3633 14.3867H19.293L19.2061 14.3926C19.1199 14.4055 19.0371 14.4378 18.9639 14.4863C18.8665 14.5509 18.7902 14.6426 18.7441 14.75L18.7412 14.7578H18.7402C18.6921 14.8673 18.6779 14.9887 18.6992 15.1064C18.7203 15.2229 18.7753 15.3308 18.8574 15.416L18.9043 15.4619H18.9033C19.1252 15.6835 19.3018 15.9467 19.4219 16.2363C19.542 16.526 19.6035 16.8368 19.6035 17.1504C19.6035 17.464 19.542 17.7748 19.4219 18.0645C19.3019 18.3538 19.1258 18.6164 18.9043 18.8379C18.6827 19.0598 18.4196 19.2364 18.1299 19.3564C17.8402 19.4765 17.5294 19.5381 17.2158 19.5381C16.9022 19.5381 16.5914 19.4765 16.3018 19.3564C16.0124 19.2365 15.7498 19.0604 15.5283 18.8389L15.4844 18.7949C15.3987 18.7113 15.2897 18.6552 15.1719 18.6338C15.0542 18.6125 14.9327 18.6266 14.8232 18.6748L14.8154 18.6787C14.708 18.7248 14.6163 18.801 14.5518 18.8984C14.4871 18.996 14.4526 19.1105 14.4521 19.2275V19.3633C14.4521 19.9961 14.2004 20.6033 13.7529 21.0508C13.3054 21.4983 12.6983 21.75 12.0654 21.75C11.4325 21.75 10.8255 21.4983 10.3779 21.0508C9.93052 20.6033 9.67871 19.9961 9.67871 19.3633V19.2969C9.67391 19.1803 9.63533 19.0677 9.56738 18.9727C9.49734 18.8747 9.39913 18.8003 9.28613 18.7588C9.2714 18.7534 9.25655 18.7466 9.24219 18.7402C9.13272 18.6921 9.01125 18.6779 8.89355 18.6992C8.77573 18.7206 8.66671 18.7767 8.58105 18.8604L8.53809 18.9043L8.53711 18.9033C8.31557 19.1251 8.05321 19.3018 7.76367 19.4219C7.47399 19.542 7.16319 19.6035 6.84961 19.6035C6.536 19.6035 6.22525 19.542 5.93555 19.4219C5.64587 19.3018 5.38275 19.1252 5.16113 18.9033V18.9023C4.93987 18.681 4.76341 18.419 4.64355 18.1299C4.52346 17.8402 4.46191 17.5294 4.46191 17.2158C4.46193 16.9022 4.52347 16.5914 4.64355 16.3018C4.76364 16.0121 4.94028 15.7489 5.16211 15.5273L5.20508 15.4844C5.28875 15.3987 5.34485 15.2897 5.36621 15.1719C5.3875 15.0542 5.37339 14.9327 5.3252 14.8232L5.32129 14.8154C5.27522 14.708 5.19898 14.6163 5.10156 14.5518C5.02838 14.5033 4.94548 14.472 4.85938 14.459L4.77246 14.4521H4.63672C4.00389 14.4521 3.39673 14.2004 2.94922 13.7529C2.50169 13.3054 2.25 12.6983 2.25 12.0654C2.25001 11.4325 2.50169 10.8255 2.94922 10.3779C3.39673 9.93052 4.00391 9.67871 4.63672 9.67871H4.70215C4.81906 9.67408 4.93206 9.63552 5.02734 9.56738C5.12527 9.49734 5.19965 9.39913 5.24121 9.28613C5.24664 9.2714 5.25343 9.25655 5.25977 9.24219C5.30795 9.13272 5.32208 9.01125 5.30078 8.89355C5.27942 8.77573 5.22332 8.66671 5.13965 8.58105H5.13867L5.0957 8.53809V8.53711C4.8742 8.31567 4.69809 8.053 4.57812 7.76367C4.45804 7.47399 4.39649 7.16319 4.39648 6.84961C4.39648 6.536 4.45803 6.22525 4.57812 5.93555C4.69822 5.64587 4.87482 5.38275 5.09668 5.16113C5.31813 4.93964 5.58078 4.7635 5.87012 4.64355C6.15982 4.52346 6.47057 4.46191 6.78418 4.46191C7.09775 4.46193 7.40857 4.52347 7.69824 4.64355C7.98756 4.76352 8.25024 4.93964 8.47168 5.16113L8.51562 5.20508L8.58398 5.2627C8.65621 5.31476 8.73978 5.35019 8.82812 5.36621C8.94583 5.3875 9.06729 5.37339 9.17676 5.3252L9.25 5.29688C9.27754 5.288 9.30564 5.28102 9.33398 5.27539C9.40496 5.2304 9.46685 5.17219 9.51367 5.10156C9.57774 5.00482 9.61225 4.89138 9.61328 4.77539V4.63672C9.61328 4.0039 9.86508 3.39673 10.3125 2.94922C10.76 2.50169 11.3671 2.25 12 2.25C12.6329 2.25 13.24 2.50169 13.6875 2.94922C14.1349 3.39673 14.3867 4.0039 14.3867 4.63672V4.70703Z" fill="#171717"/>
</svg>
