<svg width="24" height="24" viewBox="0 0 24 24" fill="none" xmlns="http://www.w3.org/2000/svg">
<path d="M18.7676 4.10162C19.08 3.7892 19.586 3.7892 19.8984 4.10162C20.2108 4.41405 20.2108 4.92008 19.8984 5.23248L13.1309 12.0001L19.8984 18.7676L19.9531 18.8282C20.2095 19.1424 20.1914 19.6056 19.8984 19.8985C19.6055 20.1914 19.1423 20.2096 18.8281 19.9532L18.7676 19.8985L12 13.1309L5.23242 19.8985C4.92002 20.2109 4.41399 20.2109 4.10156 19.8985C3.78914 19.5861 3.78914 19.0801 4.10156 18.7676L10.8691 12.0001L4.10156 5.23248C3.78914 4.92006 3.78914 4.41404 4.10156 4.10162C4.41398 3.7892 4.92 3.7892 5.23242 4.10162L12 10.8692L18.7676 4.10162Z" fill="#171717"/>
</svg>
